<?xml version="1.0" encoding="UTF-8" standalone="no"?>
<!-- Created with Inkscape (http://www.inkscape.org/) -->

<svg
   xmlns:dc="http://purl.org/dc/elements/1.1/"
   xmlns:cc="http://creativecommons.org/ns#"
   xmlns:rdf="http://www.w3.org/1999/02/22-rdf-syntax-ns#"
   xmlns:svg="http://www.w3.org/2000/svg"
   xmlns="http://www.w3.org/2000/svg"
   xmlns:sodipodi="http://sodipodi.sourceforge.net/DTD/sodipodi-0.dtd"
   xmlns:inkscape="http://www.inkscape.org/namespaces/inkscape"
   id="svg3441"
   version="1.1"
   inkscape:version="0.91 r13725"
   width="660"
   height="474"
   viewBox="0 0 660 474"
   sodipodi:docname="street.svg">
  <g
     inkscape:groupmode="layer"
     id="layer2"
     inkscape:label="streets"
     style="opacity:1">
    <path
       style="fill:none;fill-rule:evenodd;stroke:#000000;stroke-width:1px;stroke-linecap:butt;stroke-linejoin:miter;stroke-opacity:1"
       d="m 239.24858,443.41935 c 0,0 -165.495259,-8.9943 -163.696398,-117.82542 1.798862,-108.83112 3.597723,-151.10437 3.597723,-151.10437 0,0 11.6926,-38.67552 67.457305,-40.47438 55.76471,-1.79886 203.27135,10.79317 203.27135,10.79317 0,0 26.08349,0 27.88235,36.87666 1.79886,36.87666 7.19545,68.35674 27.88235,100.73624 20.68691,32.37951 60.26186,69.25617 60.26186,69.25617 0,0 17.08919,17.98861 11.6926,30.58064 -5.39658,12.59203 -28.78178,41.37382 -59.36243,48.56926 -30.58064,7.19545 -178.98671,12.59203 -178.98671,12.59203 z"
       id="path3462"
       inkscape:connector-curvature="0" />
  </g>
</svg>
